<?xml version="1.0" standalone="no"?>
<!DOCTYPE svg PUBLIC "-//W3C//DTD SVG 20010904//EN"
 "http://www.w3.org/TR/2001/REC-SVG-20010904/DTD/svg10.dtd">
<svg version="1.0" xmlns="http://www.w3.org/2000/svg"
 width="500.000000pt" height="500.000000pt" viewBox="0 0 500.000000 500.000000"
 preserveAspectRatio="xMidYMid meet">
<metadata>
Created by potrace 1.11, written by Peter Selinger 2001-2013
</metadata>
<g transform="translate(0.000000,500.000000) scale(0.100000,-0.100000)"
fill="#000000" stroke="none">
<path d="M0 2500 l0 -2500 2500 0 2500 0 0 2500 0 2500 -2500 0 -2500 0 0
-2500z m2570 978 c18 -13 43 -36 54 -51 20 -27 21 -44 26 -330 l5 -301 398
-249 397 -248 0 -101 c0 -76 -3 -99 -12 -95 -14 5 -716 225 -760 238 l-28 8 0
-274 0 -274 100 -76 100 -76 0 -75 c0 -57 -3 -75 -12 -71 -7 2 -86 25 -175 51
l-163 46 -162 -46 c-90 -26 -169 -49 -175 -51 -10 -4 -13 14 -13 71 l0 75 100
76 100 76 0 275 c0 238 -2 275 -15 271 -8 -4 -181 -58 -385 -122 -204 -64
-378 -119 -386 -122 -13 -5 -14 9 -12 97 l3 103 395 247 395 247 5 304 c5 277
7 306 24 332 43 63 137 85 196 45z"/>
</g>
</svg>
